<svg xmlns="http://www.w3.org/2000/svg" width="1280" height="640" viewBox="0 0 1280 640" role="img" aria-labelledby="title desc">
  <title id="title">BindKit social preview</title>
  <desc id="desc">BindKit, an open-source Go starter kit for production-shaped MCP servers with auth, quotas, metering, and streamable HTTP.</desc>
  <defs>
    <linearGradient id="bg" x1="0" y1="0" x2="1" y2="1">
      <stop offset="0" stop-color="#07111f"/>
      <stop offset="0.42" stop-color="#0d2a2c"/>
      <stop offset="1" stop-color="#121826"/>
    </linearGradient>
    <linearGradient id="panel" x1="0" y1="0" x2="0" y2="1">
      <stop offset="0" stop-color="#f8fafc"/>
      <stop offset="1" stop-color="#e8eef5"/>
    </linearGradient>
    <linearGradient id="terminal" x1="0" y1="0" x2="1" y2="1">
      <stop offset="0" stop-color="#101827"/>
      <stop offset="1" stop-color="#172033"/>
    </linearGradient>
    <linearGradient id="greenBlue" x1="0" y1="0" x2="1" y2="1">
      <stop offset="0" stop-color="#22c55e"/>
      <stop offset="1" stop-color="#38bdf8"/>
    </linearGradient>
    <linearGradient id="amberGreen" x1="0" y1="0" x2="1" y2="1">
      <stop offset="0" stop-color="#f59e0b"/>
      <stop offset="1" stop-color="#84cc16"/>
    </linearGradient>
    <pattern id="grid" width="40" height="40" patternUnits="userSpaceOnUse">
      <path d="M40 0H0V40" fill="none" stroke="#334155" stroke-width="1" opacity="0.28"/>
    </pattern>
    <filter id="shadow" x="-20%" y="-20%" width="140%" height="150%">
      <feDropShadow dx="0" dy="22" stdDeviation="18" flood-color="#020617" flood-opacity="0.34"/>
    </filter>
    <filter id="smallShadow" x="-20%" y="-20%" width="140%" height="150%">
      <feDropShadow dx="0" dy="10" stdDeviation="8" flood-color="#020617" flood-opacity="0.22"/>
    </filter>
    <style>
      .sans { font-family: Inter, Segoe UI, Arial, sans-serif; }
      .mono { font-family: Cascadia Mono, Consolas, Menlo, monospace; }
      .label { fill: #64748b; font-size: 17px; font-weight: 700; letter-spacing: 0; }
      .small { fill: #94a3b8; font-size: 15px; font-weight: 600; letter-spacing: 0; }
      .code { fill: #cbd5e1; font-size: 18px; letter-spacing: 0; }
    </style>
  </defs>

  <rect width="1280" height="640" fill="url(#bg)"/>
  <rect width="1280" height="640" fill="url(#grid)" opacity="0.55"/>
  <path d="M0 505 C165 438 285 560 475 500 C684 434 774 286 1006 318 C1145 337 1208 384 1280 355 L1280 640 L0 640 Z" fill="#07111f" opacity="0.76"/>
  <path d="M42 108 C246 42 368 72 520 108" fill="none" stroke="#22c55e" stroke-width="2" opacity="0.25"/>
  <path d="M761 82 C948 34 1112 56 1236 136" fill="none" stroke="#38bdf8" stroke-width="2" opacity="0.22"/>

  <g transform="translate(72 72)">
    <text class="sans" x="0" y="0" fill="#f8fafc" font-size="78" font-weight="850">BindKit</text>
    <text class="sans" x="3" y="48" fill="#cbd5e1" font-size="27" font-weight="550">Production-shaped MCP servers in Go</text>
    <g transform="translate(3 82)">
      <rect x="0" y="0" width="132" height="34" rx="17" fill="#dcfce7"/>
      <text class="sans" x="19" y="23" fill="#166534" font-size="15" font-weight="800">Apache-2.0</text>
      <rect x="150" y="0" width="106" height="34" rx="17" fill="#e0f2fe"/>
      <text class="sans" x="171" y="23" fill="#075985" font-size="15" font-weight="800">Go + MCP</text>
      <rect x="274" y="0" width="154" height="34" rx="17" fill="#fef3c7"/>
      <text class="sans" x="294" y="23" fill="#92400e" font-size="15" font-weight="800">Auth + quotas</text>
    </g>
  </g>

  <g filter="url(#shadow)" transform="translate(72 252)">
    <rect x="0" y="0" width="494" height="238" rx="18" fill="url(#terminal)" stroke="#334155"/>
    <rect x="0" y="0" width="494" height="42" rx="18" fill="#0b1220"/>
    <circle cx="25" cy="21" r="6" fill="#ef4444"/>
    <circle cx="47" cy="21" r="6" fill="#f59e0b"/>
    <circle cx="69" cy="21" r="6" fill="#22c55e"/>
    <text class="mono" x="98" y="27" fill="#94a3b8" font-size="15">bindkit quickstart</text>
    <text class="mono code" x="24" y="76">$ make new-tool name=invoice</text>
    <text class="mono code" x="24" y="110">$ BINDKIT_TRANSPORT=http</text>
    <text class="mono code" x="24" y="140">$ go run ./cmd/server</text>
    <text class="mono" x="24" y="174" fill="#22c55e" font-size="18">POST /mcp invoice.run</text>
    <text class="mono" x="24" y="208" fill="#38bdf8" font-size="18">auth=true quota=free:100 meter=on</text>
  </g>

  <g transform="translate(622 116)">
    <g filter="url(#shadow)">
      <rect x="0" y="0" width="538" height="392" rx="26" fill="url(#panel)"/>
      <rect x="30" y="30" width="478" height="64" rx="16" fill="#0f172a"/>
      <text class="mono" x="55" y="70" fill="#d9f99d" font-size="22">MCP control plane</text>

      <g transform="translate(44 126)">
        <rect x="0" y="0" width="136" height="88" rx="16" fill="#ecfeff" stroke="#bae6fd"/>
        <text class="label sans" x="22" y="34">stdio</text>
        <text class="small sans" x="22" y="60">desktop</text>
        <circle cx="112" cy="44" r="11" fill="#38bdf8"/>
      </g>

      <g transform="translate(44 250)">
        <rect x="0" y="0" width="136" height="88" rx="16" fill="#f0fdf4" stroke="#bbf7d0"/>
        <text class="label sans" x="22" y="34">HTTP /mcp</text>
        <text class="small sans" x="22" y="60">hosted</text>
        <circle cx="112" cy="44" r="11" fill="#22c55e"/>
      </g>

      <g transform="translate(228 176)">
        <circle cx="62" cy="62" r="62" fill="url(#greenBlue)"/>
        <circle cx="62" cy="62" r="44" fill="#f8fafc" opacity="0.95"/>
        <text class="sans" x="31" y="57" fill="#0f172a" font-size="17" font-weight="850">JSON</text>
        <text class="sans" x="30" y="79" fill="#0f172a" font-size="17" font-weight="850">RPC</text>
      </g>

      <g transform="translate(398 112)">
        <rect x="0" y="0" width="118" height="72" rx="14" fill="#fff7ed" stroke="#fed7aa"/>
        <text class="label sans" x="20" y="31">auth</text>
        <text class="small sans" x="20" y="54">keys/OAuth</text>
      </g>
      <g transform="translate(398 202)">
        <rect x="0" y="0" width="118" height="72" rx="14" fill="#f5f3ff" stroke="#ddd6fe"/>
        <text class="label sans" x="20" y="31">quota</text>
        <text class="small sans" x="20" y="54">plans</text>
      </g>
      <g transform="translate(398 292)">
        <rect x="0" y="0" width="118" height="72" rx="14" fill="#ecfccb" stroke="#d9f99d"/>
        <text class="label sans" x="20" y="31">meter</text>
        <text class="small sans" x="20" y="54">Stripe</text>
      </g>

      <path d="M180 170 C215 170 223 218 242 224" fill="none" stroke="#38bdf8" stroke-width="5" stroke-linecap="round"/>
      <path d="M180 294 C216 294 223 258 242 252" fill="none" stroke="#22c55e" stroke-width="5" stroke-linecap="round"/>
      <path d="M352 232 C377 164 383 148 398 148" fill="none" stroke="#f59e0b" stroke-width="5" stroke-linecap="round"/>
      <path d="M352 238 C374 238 382 238 398 238" fill="none" stroke="#8b5cf6" stroke-width="5" stroke-linecap="round"/>
      <path d="M352 246 C377 314 383 328 398 328" fill="none" stroke="#84cc16" stroke-width="5" stroke-linecap="round"/>
    </g>
  </g>

  <g filter="url(#smallShadow)" transform="translate(72 526)">
    <rect x="0" y="0" width="266" height="54" rx="14" fill="#f8fafc"/>
    <circle cx="30" cy="27" r="10" fill="#22c55e"/>
    <text class="sans" x="52" y="34" fill="#0f172a" font-size="18" font-weight="800">url.check SSRF guard</text>

    <rect x="286" y="0" width="210" height="54" rx="14" fill="#f8fafc"/>
    <circle cx="316" cy="27" r="10" fill="#38bdf8"/>
    <text class="sans" x="338" y="34" fill="#0f172a" font-size="18" font-weight="800">streamable HTTP</text>

    <rect x="516" y="0" width="236" height="54" rx="14" fill="#f8fafc"/>
    <circle cx="546" cy="27" r="10" fill="#f59e0b"/>
    <text class="sans" x="568" y="34" fill="#0f172a" font-size="18" font-weight="800">production controls</text>
  </g>

  <text class="sans" x="882" y="568" fill="#cbd5e1" font-size="22" font-weight="650">Bring your tools.</text>
  <text class="sans" x="882" y="596" fill="#cbd5e1" font-size="22" font-weight="650">Ship the server.</text>
</svg>
