<svg xmlns="http://www.w3.org/2000/svg" width="1280" height="640" viewBox="0 0 1280 640" role="img" aria-labelledby="title desc">
  <title id="title">BindKit social preview</title>
  <desc id="desc">BindKit, an open-source Go starter kit for production-shaped MCP servers.</desc>
  <defs>
    <linearGradient id="bg" x1="0" y1="0" x2="1" y2="1">
      <stop offset="0" stop-color="#101828"/>
      <stop offset="0.55" stop-color="#133238"/>
      <stop offset="1" stop-color="#0f172a"/>
    </linearGradient>
    <linearGradient id="accent" x1="0" y1="0" x2="1" y2="1">
      <stop offset="0" stop-color="#22c55e"/>
      <stop offset="1" stop-color="#38bdf8"/>
    </linearGradient>
    <filter id="soft" x="-20%" y="-20%" width="140%" height="140%">
      <feDropShadow dx="0" dy="18" stdDeviation="18" flood-color="#020617" flood-opacity="0.32"/>
    </filter>
  </defs>

  <rect width="1280" height="640" fill="url(#bg)"/>
  <path d="M0 480 C180 420 300 548 490 486 C710 414 790 264 1015 298 C1140 317 1212 368 1280 346 L1280 640 L0 640 Z" fill="#0b1220" opacity="0.72"/>
  <path d="M118 138 H452" stroke="#334155" stroke-width="2"/>
  <path d="M118 502 H514" stroke="#334155" stroke-width="2"/>
  <path d="M834 122 H1146" stroke="#334155" stroke-width="2"/>

  <g filter="url(#soft)">
    <rect x="760" y="172" width="340" height="260" rx="26" fill="#f8fafc"/>
    <rect x="790" y="202" width="280" height="42" rx="10" fill="#e2e8f0"/>
    <rect x="790" y="270" width="120" height="92" rx="16" fill="#dcfce7"/>
    <rect x="934" y="270" width="136" height="92" rx="16" fill="#e0f2fe"/>
    <rect x="790" y="386" width="280" height="16" rx="8" fill="#cbd5e1"/>
  </g>

  <g fill="none" stroke-linecap="round" stroke-linejoin="round">
    <path d="M620 224 C694 224 694 302 760 302" stroke="url(#accent)" stroke-width="12"/>
    <path d="M620 352 C688 352 700 302 760 302" stroke="#94a3b8" stroke-width="8" opacity="0.72"/>
    <path d="M620 480 C710 480 692 376 760 376" stroke="#94a3b8" stroke-width="8" opacity="0.72"/>
  </g>

  <g filter="url(#soft)">
    <rect x="120" y="166" width="500" height="92" rx="20" fill="#f8fafc"/>
    <rect x="120" y="304" width="500" height="92" rx="20" fill="#f8fafc"/>
    <rect x="120" y="442" width="500" height="92" rx="20" fill="#f8fafc"/>
    <circle cx="170" cy="212" r="18" fill="#22c55e"/>
    <circle cx="170" cy="350" r="18" fill="#38bdf8"/>
    <circle cx="170" cy="488" r="18" fill="#f59e0b"/>
    <rect x="214" y="194" width="210" height="14" rx="7" fill="#64748b"/>
    <rect x="214" y="220" width="330" height="12" rx="6" fill="#cbd5e1"/>
    <rect x="214" y="332" width="260" height="14" rx="7" fill="#64748b"/>
    <rect x="214" y="358" width="286" height="12" rx="6" fill="#cbd5e1"/>
    <rect x="214" y="470" width="230" height="14" rx="7" fill="#64748b"/>
    <rect x="214" y="496" width="310" height="12" rx="6" fill="#cbd5e1"/>
  </g>

  <text x="120" y="110" fill="#f8fafc" font-family="Inter, Segoe UI, Arial, sans-serif" font-size="76" font-weight="800">BindKit</text>
  <text x="122" y="590" fill="#cbd5e1" font-family="Inter, Segoe UI, Arial, sans-serif" font-size="30" font-weight="500">Open-source Go starter kit for production-shaped MCP servers</text>
  <text x="880" y="506" fill="#d9f99d" font-family="Inter, Segoe UI, Arial, sans-serif" font-size="24" font-weight="700">auth . quotas . metering . MCP</text>
</svg>
